<svg width="275" height="172" viewBox="0 0 275 172" fill="none" xmlns="http://www.w3.org/2000/svg">
<path d="M115.853 125.933C114.849 123.287 112.569 121.554 110.014 121.372C64.1294 118.544 22.9881 111.063 22.9881 102.215C22.9881 97.5625 34.2084 93.8224 51.4495 90.9945C53.8213 90.6296 55.6457 88.2578 55.3721 85.5211C55.0984 82.6932 52.7266 80.7775 50.3548 81.1424C19.6128 86.8894 0 95.2819 0 104.769C0 119.456 47.7094 131.771 110.927 134.416C114.758 134.599 117.495 130.129 115.944 126.115C115.853 126.024 115.853 126.024 115.853 125.933Z" fill="#FF7A00"/>
<path d="M224.59 81.3249C222.127 80.8688 219.847 82.7844 219.573 85.7035C219.299 88.349 221.124 90.7208 223.495 91.1769C240.736 94.0048 251.957 97.7449 251.957 102.397C251.957 111.246 210.815 118.726 164.931 121.554C162.376 121.736 160.096 123.47 159.092 126.115C159.092 126.115 159.092 126.206 159.001 126.206C157.45 130.22 160.096 134.69 164.018 134.508C227.236 131.862 274.945 119.547 274.945 104.86C274.945 95.2819 255.332 86.8894 224.59 81.3249Z" fill="#FF7A00"/>
<path d="M203.336 88.4402C211.182 88.1665 210.817 79.1355 206.438 78.4969C156.539 71.9289 143.586 66.3643 143.495 4.05938C143.495 3.60327 143.312 3.05595 143.13 2.59984C141.488 -0.866614 136.288 -0.866614 134.646 2.59984C134.372 3.05595 134.281 3.60327 134.281 4.05938C134.737 62.8067 118.317 72.0201 68.4184 78.4969C64.0397 79.0443 62.945 88.2577 71.5199 88.4402C114.851 89.17 132.457 98.6571 134.281 168.625C134.281 169.719 135.102 170.632 136.014 171.179C137.747 172.274 140.119 172.274 141.853 171.179C142.765 170.54 143.586 169.719 143.586 168.625C145.319 98.6571 158.637 89.8997 203.336 88.4402Z" fill="#FF7A00"/>
</svg>
